<?xml version="1.0" standalone="no"?>
<!DOCTYPE svg PUBLIC "-//W3C//DTD SVG 20010904//EN"
 "http://www.w3.org/TR/2001/REC-SVG-20010904/DTD/svg10.dtd">
<svg version="1.0" xmlns="http://www.w3.org/2000/svg"
 width="320.000000pt" height="320.000000pt" viewBox="0 0 320.000000 320.000000"
 preserveAspectRatio="xMidYMid meet">
<metadata>
Created by potrace 1.11, written by Peter Selinger 2001-2013
</metadata>
<g transform="translate(0.000000,320.000000) scale(0.100000,-0.100000)"
fill="#000000" stroke="none">
<path d="M1966 2488 c5 -7 -10 -12 -29 -9 -5 1 -6 -3 -2 -9 6 -9 -7 -14 -27
-11 -5 0 -7 -3 -5 -8 1 -5 -1 -8 -5 -7 -4 0 -15 -9 -23 -22 -9 -12 -21 -20
-26 -16 -5 3 -8 0 -7 -8 2 -7 -3 -12 -9 -10 -7 1 -13 -5 -13 -15 0 -9 -3 -14
-6 -10 -3 3 -17 -6 -31 -21 -14 -15 -29 -26 -34 -25 -5 2 -8 -1 -6 -5 3 -11
-66 -77 -78 -74 -5 2 -7 0 -2 -4 9 -10 -43 -65 -55 -58 -5 3 -7 0 -6 -8 2 -7
-3 -12 -10 -10 -6 1 -11 -4 -10 -10 2 -7 -3 -12 -10 -10 -6 1 -11 -4 -10 -10
2 -7 -4 -11 -12 -10 -8 2 -12 1 -8 -3 4 -4 -12 -26 -35 -49 -23 -24 -52 -56
-65 -72 -13 -16 -20 -22 -16 -14 4 9 3 12 -2 7 -5 -5 -9 -12 -9 -16 0 -8 -18
-30 -70 -85 -22 -23 -51 -57 -64 -74 -21 -28 -29 -31 -67 -29 -24 1 -44 0 -44
-3 0 -3 -10 -6 -22 -7 -13 0 -41 -4 -63 -8 -22 -4 -44 -8 -50 -9 -5 -1 -16 -5
-22 -9 -7 -5 -17 -6 -22 -2 -5 3 -12 1 -15 -4 -5 -8 -128 -35 -142 -31 -4 1
-10 -3 -13 -8 -4 -6 -18 -12 -31 -14 -14 -2 -30 -7 -36 -10 -6 -4 -21 -9 -35
-11 -13 -3 -41 -12 -62 -20 -20 -9 -37 -14 -37 -11 0 2 -13 -2 -30 -11 -16 -9
-30 -12 -30 -8 0 5 -4 2 -8 -4 -5 -7 -20 -14 -35 -15 -15 -1 -27 -5 -27 -9 0
-4 -15 -10 -32 -14 -36 -8 -45 -11 -53 -15 -3 -1 -9 -4 -15 -5 -5 -1 -11 -4
-12 -5 -4 -3 -34 -9 -68 -12 -22 -3 -25 1 -25 30 0 17 3 32 6 32 3 0 12 11 19
25 7 13 17 22 22 19 5 -3 7 0 6 8 -2 7 3 12 10 10 6 -1 12 2 12 8 0 5 9 19 20
30 11 11 20 17 20 14 0 -3 13 10 30 28 16 18 30 29 30 26 0 -4 12 4 26 17 15
14 31 22 37 18 5 -3 7 -1 4 4 -8 13 17 36 28 25 5 -4 5 -2 2 4 -6 10 39 40 55
36 5 -1 7 1 5 6 -1 4 2 7 7 7 5 0 12 10 17 23 6 16 16 22 40 22 23 0 30 -4 26
-15 -5 -12 -2 -12 18 -3 22 10 23 12 8 23 -16 12 -9 40 8 30 5 -4 9 -2 9 2 0
5 9 9 20 10 11 1 20 -2 20 -6 0 -4 7 -8 15 -8 8 0 12 3 10 7 -4 7 65 45 78 42
4 -1 7 2 7 7 0 7 44 25 46 18 0 -1 8 5 17 15 26 25 52 16 53 -19 0 -16 10 -45
22 -65 12 -19 18 -39 14 -43 -4 -5 -1 -5 6 -1 6 4 12 2 12 -4 0 -6 8 -10 17
-8 10 2 17 14 18 33 3 34 24 78 51 105 11 10 35 37 54 61 50 61 86 99 95 99 4
0 20 15 36 33 16 17 29 29 29 25 0 -5 8 0 19 10 34 31 65 52 78 52 7 0 13 5
13 10 0 6 6 10 13 10 6 0 22 8 34 18 19 14 22 23 17 53 -6 34 -15 40 -44 29
-3 -1 -8 -2 -12 -1 -5 0 -8 -4 -8 -10 0 -5 -4 -7 -10 -4 -5 3 -10 2 -10 -3 0
-5 -9 -12 -20 -15 -11 -3 -24 -6 -28 -7 -4 -1 -19 -11 -33 -21 -14 -10 -29
-16 -33 -12 -3 3 -6 2 -6 -4 0 -10 -36 -26 -52 -24 -5 1 -8 -4 -8 -10 0 -5 -5
-7 -10 -4 -5 3 -10 2 -10 -4 0 -8 -40 -27 -48 -22 -1 1 -14 -7 -29 -19 -14
-11 -32 -20 -39 -20 -8 0 -14 -4 -14 -9 0 -7 -18 -15 -45 -20 -3 -1 -14 -10
-25 -21 -12 -12 -25 -18 -30 -15 -6 4 -10 1 -10 -5 0 -6 -4 -9 -9 -6 -5 3 -12
-1 -15 -10 -3 -8 -10 -12 -16 -9 -5 3 -10 2 -10 -4 0 -6 -11 -13 -25 -17 -13
-3 -29 -12 -36 -20 -6 -8 -15 -11 -20 -8 -5 3 -9 0 -9 -5 0 -6 -7 -11 -15 -11
-8 0 -15 -4 -15 -10 0 -5 -6 -10 -14 -10 -7 0 -19 -7 -26 -15 -7 -8 -16 -12
-21 -9 -5 3 -9 1 -9 -3 0 -5 -9 -14 -21 -21 -17 -11 -20 -11 -14 0 4 7 -3 2
-14 -12 -11 -14 -21 -21 -21 -16 0 6 -7 1 -16 -10 -8 -10 -13 -12 -9 -4 4 8
-3 4 -14 -10 -11 -14 -21 -21 -21 -16 0 5 -9 -3 -21 -18 -11 -14 -25 -26 -30
-26 -9 0 -37 -21 -75 -57 -13 -13 -28 -23 -33 -23 -6 0 -15 -9 -21 -20 -6 -11
-16 -17 -22 -14 -6 4 -8 3 -5 -3 7 -11 -28 -44 -38 -35 -4 4 -5 2 -3 -4 2 -6
-21 -34 -50 -63 -29 -28 -50 -51 -46 -51 4 0 -5 -11 -20 -25 -15 -14 -24 -25
-20 -25 4 0 -3 -9 -15 -19 -12 -11 -22 -22 -22 -25 1 -15 -12 -35 -20 -30 -14
8 -11 -16 4 -30 6 -7 20 -15 30 -19 10 -4 15 -12 12 -17 -4 -6 -1 -9 7 -8 7 2
12 -2 11 -8 -2 -13 57 -7 82 7 6 4 22 6 36 5 17 -1 25 3 22 10 -4 11 62 41 79
36 5 -1 8 3 8 9 0 5 5 7 10 4 6 -3 10 -1 10 4 0 6 3 10 8 10 4 -1 10 0 15 1 4
1 10 3 15 4 4 1 17 8 30 15 13 7 30 10 38 7 8 -3 14 -2 14 3 0 9 48 26 63 23
4 -1 7 3 7 8 0 6 11 10 24 10 13 0 29 7 36 15 7 9 15 14 17 11 3 -2 20 2 39
10 19 8 34 11 34 8 0 -4 7 -1 15 6 8 7 15 9 15 5 0 -4 7 -2 15 5 8 7 15 9 15
5 0 -4 7 -2 15 5 8 7 15 10 15 7 0 -4 21 3 46 13 25 11 50 18 54 15 5 -3 12 0
15 6 4 5 13 8 21 5 7 -3 16 -1 20 5 3 6 12 8 20 5 7 -3 15 -2 18 2 6 11 66 14
66 4 0 -8 -41 -61 -73 -94 -9 -10 -14 -18 -10 -18 3 0 -4 -8 -15 -19 -12 -10
-22 -22 -22 -25 0 -4 -13 -21 -30 -38 -35 -35 -40 -68 -10 -68 20 0 83 56 93
84 3 8 19 23 34 33 15 10 36 27 46 38 10 11 16 13 12 5 -4 -8 2 -6 12 5 30 33
77 71 68 55 -5 -8 4 -3 21 13 31 29 119 77 141 77 22 0 15 -36 -11 -56 -14
-10 -23 -21 -20 -25 2 -4 -2 -11 -9 -16 -8 -4 -22 -26 -31 -48 -10 -22 -22
-48 -27 -57 -13 -26 -11 -38 7 -38 9 0 12 -5 8 -12 -4 -6 -3 -8 4 -4 5 3 13 0
15 -6 3 -7 4 3 2 23 -3 25 2 43 14 55 9 11 17 22 17 25 -1 3 9 17 21 30 64 72
83 91 83 86 0 -3 13 7 29 21 47 44 82 72 92 72 5 0 9 5 9 12 0 6 3 9 6 5 9 -9
31 16 31 35 0 9 -4 15 -9 12 -4 -3 -8 2 -8 10 0 9 -3 16 -7 17 -5 0 -16 2 -26
4 -10 2 -14 -1 -10 -8 4 -6 0 -8 -10 -4 -10 3 -17 2 -17 -4 0 -6 -4 -8 -9 -5
-5 4 -11 2 -13 -4 -1 -5 -12 -11 -23 -12 -12 -2 -34 -13 -50 -24 -17 -11 -43
-26 -60 -34 -16 -8 -36 -21 -43 -28 -8 -7 -18 -10 -23 -7 -5 4 -9 2 -9 -3 0
-5 -11 -9 -24 -9 -24 0 -30 21 -10 35 5 4 14 16 20 27 6 11 17 20 25 20 8 0
14 7 14 15 1 8 7 14 14 12 7 -1 10 2 7 7 -7 10 18 33 27 26 4 -3 5 -2 3 1 -7
9 27 44 36 38 5 -3 7 -1 6 4 -4 12 49 62 56 54 3 -3 6 1 6 10 0 8 10 23 22 34
14 12 18 14 13 4 -5 -9 -5 -12 1 -7 5 5 9 12 9 16 0 14 33 40 40 33 5 -4 5 -2
2 4 -5 9 25 44 39 44 3 0 37 32 75 72 38 40 69 68 69 63 0 -5 7 1 16 13 8 12
20 20 25 16 5 -3 8 -2 7 3 -2 4 -1 8 2 8 3 0 19 12 35 27 26 25 39 32 100 53
13 5 15 9 7 12 -6 3 -10 9 -6 14 3 5 0 8 -8 7 -7 -2 -12 3 -10 10 1 8 -2 11
-8 7 -5 -3 -13 0 -16 8 -2 7 -11 14 -19 14 -8 0 -12 -4 -9 -9z"/>
<path d="M1629 2203 c-13 -16 -12 -17 4 -4 9 7 17 15 17 17 0 8 -8 3 -21 -13z"/>
<path d="M2530 1996 c-6 -6 -10 -7 -10 -3 0 4 -8 3 -19 -2 -18 -10 -69 -22
-106 -26 -11 -1 -31 -8 -45 -15 -14 -7 -26 -13 -27 -12 -5 3 -3 -12 3 -30 7
-22 51 -24 99 -4 19 8 35 13 35 10 0 -2 15 3 33 13 17 9 35 16 40 15 4 -1 6 1
6 6 -3 18 2 33 9 28 4 -2 13 4 20 14 10 16 8 18 -8 17 -11 -1 -25 -6 -30 -11z"/>
<path d="M2906 1932 c-2 -1 -16 -5 -31 -8 -16 -3 -36 -9 -47 -15 -10 -5 -18
-7 -18 -4 0 3 -13 -1 -30 -10 -16 -8 -31 -15 -32 -15 -3 1 -29 -7 -55 -17 -10
-3 -20 -7 -23 -8 -3 -1 -18 -7 -35 -14 -51 -23 -80 -33 -84 -31 -2 1 -7 -3
-11 -10 -4 -6 -14 -12 -22 -14 -9 -1 -23 -8 -32 -15 -9 -7 -16 -10 -16 -6 0 5
-9 0 -20 -10 -11 -10 -20 -15 -20 -11 0 4 -12 -5 -27 -19 -26 -24 -27 -27 -10
-36 9 -6 14 -15 11 -21 -4 -7 -2 -8 4 -4 7 4 12 2 12 -5 0 -7 3 -9 6 -6 4 3
15 2 25 -4 13 -7 19 -6 19 1 0 6 12 9 28 7 15 -2 34 -1 43 4 9 4 38 11 65 14
27 3 67 8 89 11 81 10 165 11 165 3 0 -13 -37 -30 -53 -23 -8 3 -22 -2 -31
-11 -9 -9 -20 -14 -25 -11 -5 4 -11 1 -13 -4 -2 -6 -14 -12 -28 -14 -14 -2
-32 -6 -40 -10 -8 -3 -25 -7 -37 -9 -12 -2 -26 -7 -30 -11 -5 -5 8 -5 27 0 19
4 50 8 67 8 18 1 33 5 33 10 0 4 6 6 14 3 8 -3 17 -3 20 1 4 3 12 7 19 8 7 1
26 5 42 9 17 3 41 7 55 8 14 1 28 6 31 10 3 4 15 9 26 9 19 2 43 20 44 34 1
11 -32 27 -66 33 -16 3 -99 4 -183 4 -139 -2 -153 0 -150 15 2 9 8 17 13 18 6
0 27 8 47 17 21 10 45 18 55 20 10 1 24 6 31 11 7 4 16 6 18 3 3 -3 21 1 40 9
18 8 37 14 41 13 5 -1 10 0 13 1 19 7 52 12 95 14 53 3 55 6 41 59 -7 22 -13
27 -38 25 -16 -1 -30 -4 -32 -6z"/>
<path d="M2154 1917 c-8 -5 -24 -10 -35 -12 -12 -2 -27 -9 -35 -16 -8 -6 -14
-8 -14 -3 0 5 -4 3 -9 -4 -4 -7 -18 -14 -29 -15 -12 -1 -22 -4 -22 -7 0 -8
-71 -34 -87 -33 -29 2 -33 4 -33 18 0 8 -5 15 -11 15 -5 0 -7 5 -3 12 4 7 3 8
-5 4 -6 -4 -14 -1 -17 7 -5 13 -35 20 -31 8 1 -6 -31 -46 -76 -92 -15 -16 -24
-29 -21 -29 4 0 -8 -14 -27 -31 -19 -18 -27 -28 -19 -24 16 9 -21 -37 -55 -68
-11 -10 -13 -15 -5 -11 8 4 4 -6 -10 -22 -14 -16 -28 -30 -32 -32 -5 -2 -8 -9
-8 -16 0 -6 -9 -19 -20 -29 -23 -19 -20 -31 12 -48 13 -7 18 -7 14 0 -4 5 3
15 14 21 11 6 19 14 17 18 -2 10 93 107 104 107 5 0 14 7 21 15 24 28 71 65
64 50 -4 -8 2 -4 13 10 11 14 21 22 21 18 0 -4 12 4 27 18 14 13 28 22 31 20
2 -3 14 4 25 15 12 11 27 17 33 15 7 -3 15 2 18 10 3 8 15 14 26 14 11 0 20 3
20 8 0 11 52 32 63 25 6 -3 7 -1 3 5 -4 7 2 10 14 9 24 -2 23 -32 0 -32 -8 -1
-14 -6 -12 -13 1 -7 -2 -12 -7 -12 -4 0 -20 -11 -35 -25 -15 -14 -24 -25 -21
-25 9 0 47 24 69 42 10 10 23 15 28 12 4 -3 8 -1 8 5 0 11 56 41 77 41 7 0 13
4 13 9 0 5 11 12 25 15 14 4 25 10 25 15 0 20 -78 33 -106 18z"/>
<path d="M2286 1839 c3 -5 1 -9 -5 -9 -5 0 -38 -28 -73 -62 -34 -35 -66 -63
-69 -63 -4 0 -11 -4 -16 -9 -5 -5 -2 -6 7 -1 8 4 -1 -7 -20 -26 -19 -18 -34
-36 -33 -41 2 -4 -2 -8 -7 -8 -5 0 -10 -6 -10 -14 0 -8 -7 -17 -16 -20 -8 -3
-13 -10 -10 -15 4 -5 1 -11 -6 -13 -7 -3 -9 -14 -5 -29 5 -19 14 -25 38 -27
27 -2 30 0 20 12 -7 8 -19 12 -27 9 -8 -3 -14 0 -14 7 0 15 105 120 120 120 5
0 14 9 20 21 7 11 14 19 16 16 3 -3 16 5 29 17 38 35 54 46 63 46 5 0 15 7 22
15 7 8 16 12 21 9 5 -3 9 -2 10 3 0 4 2 15 3 23 1 8 -5 22 -14 30 -17 16 -53
23 -44 9z"/>
<path d="M1159 1573 c-13 -16 -12 -17 4 -4 9 7 17 15 17 17 0 8 -8 3 -21 -13z"/>
<path d="M2535 1580 c-3 -5 -15 -10 -25 -10 -10 0 -21 -4 -24 -8 -3 -5 8 -6
24 -4 16 2 31 10 34 18 6 16 0 19 -9 4z"/>
<path d="M2568 1583 c7 -3 16 -2 19 1 4 3 -2 6 -13 5 -11 0 -14 -3 -6 -6z"/>
<path d="M2135 1560 c-4 -6 -11 -7 -17 -4 -7 4 -8 2 -4 -4 6 -11 -6 -16 -26
-13 -5 0 -8 -3 -8 -9 0 -5 4 -10 9 -10 11 0 69 49 59 50 -4 0 -10 -5 -13 -10z"/>
<path d="M2310 1550 c-94 -37 -97 -39 -75 -41 23 -2 22 -2 67 7 18 3 42 8 53
10 45 8 55 10 60 16 4 3 -10 4 -29 1 -34 -4 -50 10 -23 20 6 3 8 5 2 5 -5 0
-30 -8 -55 -18z"/>
<path d="M2455 1560 c-3 -5 -1 -10 4 -10 6 0 11 5 11 10 0 6 -2 10 -4 10 -3 0
-8 -4 -11 -10z"/>
<path d="M498 1322 l-28 -3 0 -170 c0 -93 -3 -169 -8 -169 -4 0 -13 15 -20 33
-8 17 -18 41 -23 52 -4 11 -31 72 -58 135 l-50 115 -53 0 -53 0 0 -315 0 -315
55 0 55 0 1 158 c1 87 4 160 7 163 2 3 19 -30 37 -73 17 -43 48 -117 68 -165
l36 -88 56 0 56 0 1 314 1 315 -27 8 c-14 5 -38 7 -53 5z"/>
<path d="M840 1323 c-8 -2 -34 -14 -57 -25 -54 -28 -76 -76 -76 -161 3 -374 2
-362 59 -424 42 -45 109 -52 178 -18 27 14 31 14 38 0 5 -8 22 -15 38 -15 27
0 30 3 30 33 0 17 1 95 2 172 l1 140 -64 2 c-105 3 -111 0 -107 -55 3 -43 5
-47 31 -50 24 -3 27 -7 27 -40 0 -58 -10 -80 -39 -89 -37 -13 -61 -5 -72 23
-11 30 -12 354 -1 370 13 20 52 35 73 29 22 -7 39 -42 39 -81 0 -13 3 -24 8
-25 4 0 21 -2 37 -4 54 -8 65 2 65 52 0 52 -31 123 -62 142 -32 20 -115 34
-148 24z"/>
<path d="M1194 1322 c-29 -4 -31 -18 -29 -294 1 -193 4 -238 17 -263 33 -61
79 -87 158 -87 45 -1 65 4 91 23 48 33 59 45 67 71 11 42 14 529 2 543 -9 11
-87 10 -100 -2 -2 -2 -5 -114 -6 -249 -2 -175 -6 -249 -14 -259 -19 -23 -77
-19 -91 6 -7 14 -11 105 -12 262 l-2 241 -30 6 c-16 3 -40 4 -51 2z"/>
<path d="M1617 1314 c-3 -4 -2 -15 3 -24 5 -10 37 -85 71 -166 l62 -149 2
-145 c1 -80 3 -147 4 -150 1 -5 14 -6 84 -2 l27 2 0 145 c0 132 2 149 24 197
42 92 116 273 116 285 0 7 -21 10 -57 10 l-57 -2 -37 -95 c-20 -52 -41 -95
-45 -95 -5 0 -22 38 -39 85 -16 47 -34 91 -38 98 -8 12 -108 17 -120 6z"/>
<path d="M2136 1302 c-7 -28 -2 -610 6 -618 4 -4 49 -6 100 -5 51 2 125 3 164
3 l72 -1 3 32 c9 77 10 76 -114 79 l-112 3 -3 73 c-3 63 -1 72 15 73 10 1 45
3 78 4 33 1 66 3 73 4 8 1 12 18 12 51 0 57 7 53 -117 51 -45 -1 -63 2 -64 11
-3 30 2 132 6 136 2 2 53 4 113 3 l110 -2 4 33 c3 18 2 44 -2 58 l-6 25 -167
2 c-148 2 -167 0 -171 -15z"/>
<path d="M2628 1301 c-3 -9 -4 -151 -4 -316 l1 -300 55 0 55 0 2 158 c0 87 3
161 6 163 4 4 62 -122 62 -136 0 -3 18 -47 40 -98 l40 -93 55 3 55 3 1 310 c2
223 -1 312 -10 317 -6 4 -30 8 -53 8 l-43 0 -1 -42 c0 -24 0 -100 -1 -170 0
-71 -3 -128 -7 -128 -5 0 -34 62 -66 138 -92 218 -81 202 -136 200 -35 0 -48
-5 -51 -17z"/>
</g>
</svg>
